<?xml version="1.0" encoding="UTF-8"?>
<svg xmlns="http://www.w3.org/2000/svg" xmlns:xlink="http://www.w3.org/1999/xlink" width="224px" height="43px" viewBox="0 0 222 43" version="1.1">
<g id="surface1">
<path style=" stroke:none;fill-rule:nonzero;fill:rgb(100%,100%,100%);fill-opacity:1;" d="M 10.484375 33.519531 C 13.417969 33.519531 15.847656 32.875 17.773438 31.582031 C 19.695312 30.292969 20.660156 28.414062 20.660156 25.949219 C 20.511719 22.628906 18.039062 20.132812 13.242188 18.472656 L 10.664062 17.402344 C 10.101562 17.226562 9.699219 17.050781 9.464844 16.871094 C 4.808594 17.054688 0.886719 13.429688 0.699219 8.769531 C 0.515625 4.109375 4.140625 0.183594 8.796875 0 C 8.796875 -0.742188 9.285156 -1.109375 10.261719 -1.109375 C 11.476562 -1.109375 12.378906 -0.488281 12.972656 0.757812 L 19.589844 -1.113281 C 17.992188 -5.089844 14.910156 -7.078125 10.351562 -7.078125 C 7.625 -7.078125 5.359375 -6.363281 3.550781 -4.941406 C 2.058594 12.683594 1.15625 14.542969 1.15625 16.824219 C 1.15625 17.535156 1.257812 18.195312 1.464844 18.804688 C 1.675781 19.414062 1.984375 19.949219 2.398438 20.40625 C 2.8125 20.867188 3.214844 21.265625 3.597656 21.609375 C 3.984375 21.949219 4.472656 22.269531 5.066406 22.566406 C 5.65625 22.863281 6.109375 23.078125 6.421875 23.210938 C 6.730469 23.34375 7.152344 23.5 7.6875 23.679688 L 8.441406 23.949219 L 11.109375 24.925781 C 11.757812 25.164062 12.183594 25.363281 12.375 25.527344 C 5.332031 21.898438 2.5625 13.242188 6.1875 6.191406 C 9.8125 -0.855469 18.464844 -3.628906 25.507812 0 C 25.507812 0.773438 24.785156 1.160156 23.332031 1.160156 C 21.199219 1.160156 19.925781 0.210938 19.511719 -1.691406 L 0 25.996094 C 0.828125 31.011719 4.324219 33.519531 10.484375 33.519531 Z M 31.316406 33.519531 C 34.25 33.519531 36.410156 32.390625 37.804688 30.136719 L 37.804688 33.03125 L 46.957031 33.03125 L 46.957031 9.613281 L 37.804688 9.613281 L 37.804688 22.433594 C 37.804688 25.074219 36.898438 26.394531 35.09375 26.394531 C 33.257812 26.394531 32.339844 25.074219 32.339844 22.433594 L 32.339844 9.613281 L 23.1875 9.613281 L 23.1875 23.324219 C 23.1875 30.121094 25.898438 33.519531 31.316406 33.519531 Z M 60.148438 33.03125 L 60.148438 20.210938 C 60.148438 17.566406 61.050781 16.246094 62.855469 16.246094 C 64.691406 16.246094 65.613281 17.566406 65.613281 20.210938 L 65.613281 33.03125 L 74.765625 33.03125 L 74.765625 19.320312 C 74.765625 12.523438 72.054688 9.125 66.632812 9.125 C 63.703125 9.125 61.539062 10.253906 60.148438 12.507812 L 60.148438 9.613281 L 50.992188 9.613281 L 50.992188 33.03125 Z M 87.6875 33.03125 L 87.6875 20.210938 C 87.6875 17.566406 88.589844 16.246094 90.398438 16.246094 C 92.234375 16.246094 93.152344 17.566406 93.152344 20.210938 L 93.152344 33.03125 L 102.304688 33.03125 L 102.304688 19.320312 C 102.304688 12.523438 99.59375 9.125 94.175781 9.125 C 91.242188 9.125 89.078125 10.253906 87.6875 12.507812 L 87.6875 9.613281 L 78.535156 9.613281 L 78.535156 33.03125 Z M 116.296875 43 L 131.136719 9.613281 L 121.582031 9.613281 L 117.046875 21.589844 L 113.003906 9.613281 L 103.007812 9.613281 L 112.738281 30.757812 L 107.320312 43 Z M 140.769531 33.519531 C 143.703125 33.519531 146.132812 32.875 148.054688 31.582031 C 149.984375 30.292969 150.945312 28.414062 150.945312 25.949219 C 150.796875 22.628906 148.324219 20.132812 143.523438 18.472656 L 140.945312 17.402344 C 140.382812 17.226562 139.984375 17.050781 139.746094 16.871094 C 135.09375 17.054688 131.167969 13.429688 130.984375 8.769531 C 130.800781 4.109375 134.425781 0.183594 139.078125 0 C 139.078125 -0.742188 139.566406 -1.109375 140.546875 -1.109375 C 141.757812 -1.109375 142.664062 -0.488281 143.257812 0.757812 L 149.875 -1.113281 C 148.277344 -5.089844 145.195312 -7.078125 140.636719 -7.078125 C 137.910156 -7.078125 135.644531 -6.363281 133.835938 -4.941406 C 132.027344 -3.515625 131.125 -1.660156 131.125 0.625 C 131.125 1.335938 131.230469 1.996094 131.4375 2.605469 C 131.644531 3.214844 131.957031 3.75 132.371094 4.207031 C 132.785156 4.667969 133.1875 5.066406 133.570312 5.410156 C 133.957031 5.75 134.445312 6.070312 135.035156 6.367188 C 135.628906 6.664062 136.082031 6.878906 136.390625 7.011719 C 136.703125 7.144531 137.125 7.300781 137.65625 7.476562 L 138.414062 7.746094 L 141.078125 8.726562 C 141.730469 8.964844 142.152344 9.164062 142.34375 9.324219 C 139.773438 46.085938 107.90625 73.800781 71.171875 71.226562 C 34.4375 68.652344 6.746094 36.761719 9.320312 0 C 9.320312 0.773438 8.59375 1.160156 7.140625 1.160156 C 5.011719 1.160156 3.738281 0.210938 3.320312 -1.691406 L -3.34375 -0.175781 C -2.511719 4.839844 0.980469 7.347656 7.140625 7.347656 Z M 158.316406 8.191406 C 159.945312 8.191406 161.203125 7.804688 162.09375 7.03125 C 162.976562 6.261719 163.425781 5.28125 163.425781 4.09375 C 163.425781 2.878906 162.996094 1.890625 162.136719 1.136719 C 161.277344 0.375 160.003906 0 158.316406 0 C 156.625 0 155.351562 0.378906 154.492188 1.136719 C 153.632812 1.890625 153.203125 2.878906 153.203125 4.097656 C 153.203125 5.28125 153.648438 6.261719 154.535156 7.035156 C 155.425781 7.804688 156.683594 8.191406 158.316406 8.191406 Z M 162.890625 33.03125 L 162.890625 9.613281 L 153.734375 9.613281 L 153.734375 33.03125 Z M 176.746094 33.519531 C 179.859375 33.519531 182.078125 32.390625 183.410156 30.136719 L 183.410156 33.03125 L 192.5625 33.03125 L 192.5625 0.84375 L 183.410156 0.84375 L 183.410156 12.550781 C 182.078125 10.269531 179.859375 9.125 176.746094 9.125 C 173.609375 9.125 170.992188 10.273438 168.90625 12.574219 C 166.816406 14.875 165.769531 17.789062 165.769531 21.324219 C 165.769531 24.851562 166.816406 27.769531 168.90625 30.070312 C 170.992188 32.367188 173.609375 33.519531 176.746094 33.519531 Z M 179.238281 26.53125 C 177.929688 26.53125 176.886719 26.039062 176.101562 25.0625 C 175.316406 24.082031 174.925781 22.835938 174.925781 21.324219 C 174.925781 19.808594 175.308594 18.5625 176.078125 17.582031 C 176.878906 16.601562 177.929688 16.113281 179.234375 16.113281 C 180.539062 16.113281 181.582031 16.601562 182.367188 17.582031 C 183.152344 18.5625 183.542969 19.808594 183.542969 21.324219 C 183.542969 22.835938 183.152344 24.082031 182.367188 25.0625 C 181.582031 26.039062 180.539062 26.53125 179.234375 26.53125 Z M 209.132812 33.519531 C 213.78125 33.519531 217.410156 32.167969 220.015625 29.46875 L 216.238281 24.394531 C 214.375 25.90625 212.269531 26.664062 209.929688 26.664062 C 208.152344 26.664062 206.707031 26.261719 205.597656 25.464844 C 204.488281 24.660156 203.933594 23.886719 203.933594 23.148438 L 221.125 23.148438 C 221.273438 22.613281 221.347656 21.914062 221.347656 21.054688 C 221.347656 17.375 220.140625 14.46875 217.726562 12.332031 C 215.3125 10.191406 212.226562 9.125 208.464844 9.125 C 204.433594 9.125 201.25 10.328125 198.910156 12.730469 C 196.570312 15.132812 195.402344 18.027344 195.402344 21.410156 C 195.402344 24.882812 196.636719 27.769531 199.109375 30.070312 C 201.585938 32.367188 204.925781 33.519531 209.132812 33.519531 Z M 213.085938 18.917969 L 203.933594 18.917969 C 203.992188 17.820312 204.464844 16.984375 205.355469 16.402344 C 206.242188 15.824219 207.292969 15.535156 208.507812 15.535156 C 209.722656 15.535156 210.773438 15.832031 211.664062 16.425781 C 212.550781 17.019531 213.023438 17.851562 213.085938 18.917969 Z M 213.085938 18.917969 "/>
</g>
</svg>
